<?xml version="1.0" standalone="no"?>
<!DOCTYPE svg PUBLIC "-//W3C//DTD SVG 20010904//EN"
 "http://www.w3.org/TR/2001/REC-SVG-20010904/DTD/svg10.dtd">
<svg version="1.0" xmlns="http://www.w3.org/2000/svg"
 width="225.000000pt" height="225.000000pt" viewBox="0 0 225.000000 225.000000"
 preserveAspectRatio="xMidYMid meet">
<metadata>
Created by potrace 1.14, written by Peter Selinger 2001-2017
</metadata>
<g transform="translate(0.000000,225.000000) scale(0.100000,-0.100000)"
fill="#000000" stroke="none">
<path d="M1693 1736 c-149 -146 -273 -266 -276 -266 -3 0 -101 83 -217 185
l-213 185 -46 -33 c-25 -18 -196 -138 -378 -266 -183 -128 -333 -234 -333
-236 0 -4 43 -119 46 -124 2 -2 159 106 351 240 191 134 351 244 354 244 4 0
102 -83 219 -185 117 -102 215 -185 219 -185 4 0 143 132 309 294 l301 294
-24 46 c-13 25 -28 52 -33 59 -7 10 -80 -56 -279 -252z"/>
<path d="M850 795 l0 -565 110 0 110 0 -2 563 -3 562 -107 3 -108 3 0 -566z"/>
<path d="M1690 795 l0 -565 110 0 110 0 0 565 0 565 -110 0 -110 0 0 -565z"/>
<path d="M390 665 l0 -435 105 0 105 0 0 435 0 435 -105 0 -105 0 0 -435z"/>
<path d="M1288 823 c-2 -153 -2 -349 0 -435 l3 -158 104 0 105 0 0 435 0 435
-105 0 -104 0 -3 -277z"/>
</g>
</svg>
